<svg width="150" height="150" viewBox="0 0 150 150" fill="none" xmlns="http://www.w3.org/2000/svg">
<circle cx="75" cy="75" r="74.5" fill="url(#paint0_linear_3376_3717)" stroke="#F1CB68"/>
<g filter="url(#filter0_d_3376_3717)">
<path d="M70.6319 99.2708L73.8936 96.009C77.5661 92.3365 74.9651 86.0571 69.7714 86.0571C66.5518 86.0571 63.9417 83.447 63.9417 80.2274C63.9417 75.0337 57.6623 72.4327 53.9898 76.1052L50.728 79.3669C49.2764 80.8185 48.4609 82.7873 48.4609 84.8402V87.4637C48.4609 95.2367 54.7621 101.538 62.5351 101.538H65.1586C67.2115 101.538 69.1803 100.722 70.6319 99.2708Z" fill="#19A771"/>
<path d="M85.992 48.4609H67.1479C60.2519 48.4609 56.7984 56.7984 61.6746 61.6746C63.1262 63.1262 65.095 63.9417 67.1479 63.9417H70.4192C79.0558 63.9417 86.0571 70.9431 86.0571 79.5796V82.8509C86.0571 84.9038 86.8726 86.8726 88.3242 88.3242C93.2004 93.2004 101.538 89.7469 101.538 82.8509V64.0068C101.538 55.4211 94.5777 48.4609 85.992 48.4609Z" fill="#19A771"/>
</g>
<defs>
<filter id="filter0_d_3376_3717" x="44.4609" y="48.4609" width="61.0781" height="61.0781" filterUnits="userSpaceOnUse" color-interpolation-filters="sRGB">
<feFlood flood-opacity="0" result="BackgroundImageFix"/>
<feColorMatrix in="SourceAlpha" type="matrix" values="0 0 0 0 0 0 0 0 0 0 0 0 0 0 0 0 0 0 127 0" result="hardAlpha"/>
<feOffset dy="4"/>
<feGaussianBlur stdDeviation="2"/>
<feComposite in2="hardAlpha" operator="out"/>
<feColorMatrix type="matrix" values="0 0 0 0 0 0 0 0 0 0 0 0 0 0 0 0 0 0 0.3 0"/>
<feBlend mode="normal" in2="BackgroundImageFix" result="effect1_dropShadow_3376_3717"/>
<feBlend mode="normal" in="SourceGraphic" in2="effect1_dropShadow_3376_3717" result="shape"/>
</filter>
<linearGradient id="paint0_linear_3376_3717" x1="0" y1="0" x2="159.759" y2="11.2355" gradientUnits="userSpaceOnUse">
<stop stop-color="#222126"/>
<stop offset="1" stop-color="#111116"/>
</linearGradient>
</defs>
</svg>
