<svg width="16" height="16" viewBox="0 0 16 16" fill="none" xmlns="http://www.w3.org/2000/svg">
<g clip-path="url(#clip0_103_143)">
<mask id="mask0_103_143" style="mask-type:luminance" maskUnits="userSpaceOnUse" x="0" y="0" width="16" height="16">
<path d="M0 0H16V16H0V0Z" fill="white"/>
</mask>
<g mask="url(#mask0_103_143)">
<path d="M13.5 6.91406V13C13.5 13.5523 13.3047 14.0237 12.9142 14.4142C12.5237 14.8047 12.0523 15 11.5 15H4.5C3.94771 15 3.47631 14.8047 3.08579 14.4142C2.69526 14.0237 2.5 13.5523 2.5 13V3C2.5 2.44772 2.69526 1.97631 3.08579 1.58579C3.47631 1.19526 3.94772 1 4.5 1H7.58594C7.78483 1.00003 7.97613 1.03809 8.15984 1.11419C8.34355 1.19029 8.50571 1.29863 8.64633 1.43922L13.0607 5.85363C13.2014 5.99428 13.3097 6.15645 13.3858 6.34016C13.4619 6.52387 13.4999 6.71522 13.5 6.91406ZM12.5 6.91414C12.5 6.84786 12.4873 6.7841 12.4619 6.72286C12.4366 6.66163 12.4005 6.60759 12.3536 6.56074L7.9393 2.14641C7.89243 2.09954 7.83837 2.06343 7.77714 2.03806C7.7159 2.0127 7.65217 2.00001 7.58594 2H4.5C4.22386 2 3.98815 2.09763 3.79289 2.29289C3.59763 2.48815 3.5 2.72386 3.5 3V13C3.5 13.2762 3.59763 13.5119 3.79289 13.7071C3.98815 13.9024 4.22386 14 4.5 14H11.5C11.7762 14 12.0119 13.9024 12.2071 13.7071C12.4024 13.5119 12.5 13.2762 12.5 13V6.91414Z" fill="#9CA3AF"/>
<path fill-rule="evenodd" clip-rule="evenodd" d="M8 1.25C7.72386 1.25 7.5 1.47386 7.5 1.75V5.5C7.5 5.91421 7.64645 6.26777 7.93934 6.56066C8.23223 6.85355 8.58579 7 9 7H12.75C13.0261 7 13.25 6.77614 13.25 6.5C13.25 6.22386 13.0261 6 12.75 6H9C8.86193 6 8.74408 5.95118 8.64645 5.85355C8.54882 5.75592 8.5 5.63807 8.5 5.5V1.75C8.5 1.47386 8.27614 1.25 8 1.25ZM5 9C5 9.27614 5.22386 9.5 5.5 9.5H10.5C10.7761 9.5 11 9.27614 11 9C11 8.72386 10.7761 8.5 10.5 8.5H5.5C5.22386 8.5 5 8.72386 5 9ZM5 11.5C5 11.7762 5.22386 12 5.5 12H10.5C10.7761 12 11 11.7762 11 11.5C11 11.2238 10.7761 11 10.5 11H5.5C5.22386 11 5 11.2238 5 11.5Z" fill="#9CA3AF"/>
</g>
</g>
<defs>
<clipPath id="clip0_103_143">
<rect width="16" height="16" fill="white"/>
</clipPath>
</defs>
</svg>
