<svg width="16" height="16" viewBox="0 0 16 16" fill="none" xmlns="http://www.w3.org/2000/svg">
<g clip-path="url(#clip0_103_137)">
<mask id="mask0_103_137" style="mask-type:luminance" maskUnits="userSpaceOnUse" x="0" y="0" width="16" height="16">
<path d="M0 0H16V16H0V0Z" fill="white"/>
</mask>
<g mask="url(#mask0_103_137)">
<path fill-rule="evenodd" clip-rule="evenodd" d="M13.75 14H2.25C1.76675 14 1.35427 13.8291 1.01256 13.4874C0.670854 13.1457 0.5 12.7333 0.5 12.25V3.75C0.5 3.26675 0.670854 2.85427 1.01256 2.51256C1.35427 2.17085 1.76675 2 2.25 2H4.62156C4.79433 2 4.9634 2.02504 5.12875 2.07512C5.2941 2.12519 5.44865 2.19815 5.59239 2.294L6.46235 2.87398C6.52398 2.91507 6.59022 2.94635 6.66109 2.96781C6.73195 2.98927 6.80441 3 6.87845 3H13.75C14.2333 3 14.6457 3.17085 14.9874 3.51256C15.3291 3.85427 15.5 4.26675 15.5 4.75V12.25C15.5 12.7333 15.3291 13.1457 14.9874 13.4874C14.6457 13.8291 14.2333 14 13.75 14ZM14.5 6.5V12.25C14.5 12.4571 14.4268 12.6339 14.2803 12.7803C14.1339 12.9268 13.9571 13 13.75 13H2.25C2.0429 13 1.86612 12.9268 1.71967 12.7803C1.57322 12.6339 1.5 12.4571 1.5 12.25V6.5H14.5ZM14.5 5.5H1.5V3.75C1.5 3.54289 1.57322 3.36611 1.71967 3.21967C1.86611 3.07322 2.04289 3 2.25 3H4.62156C4.6956 3 4.76805 3.01073 4.83891 3.03219C4.90978 3.05365 4.97601 3.08492 5.03761 3.126L5.90765 3.70602C6.05137 3.80185 6.2059 3.87481 6.37125 3.92488C6.5366 3.97495 6.70566 3.99999 6.87842 4H13.75C13.9571 4 14.1339 4.07322 14.2803 4.21967C14.4268 4.36612 14.5 4.5429 14.5 4.75V5.5Z" fill="#9CA3AF"/>
</g>
</g>
<defs>
<clipPath id="clip0_103_137">
<rect width="16" height="16" fill="white"/>
</clipPath>
</defs>
</svg>
