<svg width="150" height="150" viewBox="0 0 150 150" fill="none" xmlns="http://www.w3.org/2000/svg">
<circle cx="75" cy="75" r="74.5" fill="url(#paint0_linear_3376_3707)" stroke="#F1CB68"/>
<g filter="url(#filter0_d_3376_3707)">
<path fill-rule="evenodd" clip-rule="evenodd" d="M71.1933 57.3991C69.9895 56.7429 68.4808 56.9293 67.3003 57.5506C65.5605 58.4884 64.3645 60.1641 63.4888 61.8923C62.9527 62.9164 62.5979 64.0094 62.3586 65.1302C62.0705 66.479 60.5626 67.3565 60.2443 66.0145C59.9217 65.0295 60.1346 64.0243 60.3431 63.0397C60.3932 62.8034 60.443 62.5684 60.485 62.335C60.559 62.0688 60.4222 61.8397 60.2902 61.6186C60.2153 61.4932 60.0841 61.404 59.9383 61.4123C59.2884 61.4492 58.6629 61.7995 58.3667 62.3972C57.3726 64.2553 57.4599 66.762 58.8346 68.4105C60.248 70.1999 62.2949 71.898 64.326 72.9345C64.4298 72.9875 64.5371 73.0355 64.648 73.0782C66.1828 73.697 67.8617 73.103 69.2251 72.3122C69.3006 72.2684 69.3952 72.3281 69.3873 72.415C69.3855 72.4348 69.3837 72.4546 69.3819 72.4744C69.3044 73.3181 68.7948 74.0241 68.0373 74.4035C67.8619 74.4914 67.6865 74.5793 67.5158 74.6743L67.3637 74.7544C64.7235 76.1457 62.0443 77.5575 59.8268 79.5828C58.1803 81.1282 56.8852 83.1844 56.6367 85.462C56.5163 87.2524 57.2289 89.2171 58.7977 90.2015C60.4365 91.2869 62.5976 91.2269 64.3839 90.5532C66.6362 89.695 68.3158 87.7842 69.4264 85.699C71.069 82.7475 71.3506 79.3051 71.5894 76.0024C71.604 75.9171 71.6113 75.824 71.6189 75.7288C71.6258 75.6415 71.6329 75.5526 71.6457 75.4664C71.7165 74.9915 72.239 74.7841 72.6556 74.5454C74.9314 73.2422 77.1499 71.8399 79.2873 70.3194C79.5827 70.1092 79.9924 70.1623 80.2171 70.4467C80.4677 70.7639 80.3742 71.2238 80.031 71.4374C78.9716 72.0971 77.9504 72.8304 77.1445 73.7947C73.5213 77.7576 73.4612 84.5591 77.259 88.4269C79.2007 90.4755 82.1852 91.351 84.9482 90.9415C87.4879 90.5804 89.7983 88.9822 91.08 86.7689C92.7884 83.9494 92.5088 80.0061 90.2878 77.546C88.21 75.251 84.1655 75.2956 82.1347 77.6256C80.5368 79.3071 80.4843 82.2798 82.1522 83.9261C82.8279 84.6 84.0046 85.0076 84.8531 84.427C85.4006 84.0329 85.3482 83.1904 84.9072 82.7339L84.8811 82.7024C84.3162 82.0203 83.6633 81.232 83.8317 80.2835C84.0024 79.0312 85.4026 78.2642 86.5811 78.5304C87.5906 78.6877 88.3964 79.4758 88.7711 80.4C89.6548 82.5029 89.1538 85.1086 87.5675 86.7456C85.886 88.4991 82.9617 88.7746 80.9328 87.4756C79.1308 86.367 78.1058 84.3107 77.7891 82.2701C77.4573 79.81 77.9291 77.1557 79.4551 75.15C80.3002 74.0575 81.4327 73.1333 82.7362 72.6565C83.1582 72.5021 83.6131 72.4781 84.0604 72.5198C85.1713 72.6234 86.3013 72.7288 87.379 72.3771C87.9888 72.1693 88.5828 71.4859 88.2721 70.818C87.9362 70.1325 87.111 69.9267 86.4237 69.7831C85.5404 69.6077 84.6613 69.7856 83.794 69.9612C83.5171 70.0172 83.2195 70.0117 82.9901 69.847C82.9558 69.8224 82.9225 69.7965 82.8901 69.7693C82.1629 69.1582 82.5741 68.0307 83.3158 67.4372C84.8068 66.2442 86.2061 64.9258 87.239 63.3096C88.0081 62.065 88.509 60.5369 88.1479 59.0748C87.8626 58.1059 87.0685 57.2826 86.0548 57.0982C84.3657 56.673 82.6374 57.5254 81.4899 58.735C79.6453 60.7369 78.7095 63.5115 78.7949 66.2182C78.785 66.4376 78.8124 66.6612 78.8398 66.8844C78.9211 67.5468 78.5535 68.1314 78.0131 68.523C77.1984 69.1132 76.345 69.6512 75.4926 70.1884C75.1307 70.4165 74.769 70.6444 74.4106 70.8762C74.1483 71.0285 73.8897 71.1879 73.6312 71.3473C72.8125 71.8522 71.8187 71.2394 72.0093 70.2967C72.0274 70.2074 72.0473 70.1186 72.0692 70.0301C72.1104 69.8644 72.1877 69.7101 72.292 69.5748C72.4803 69.3306 72.6788 69.0934 72.8774 68.8561C73.3382 68.3054 73.7995 67.7541 74.1349 67.1133C74.5155 66.4279 74.8747 65.5599 74.4786 64.8027C74.1155 64.2416 73.3116 64.2959 72.7855 64.5755C71.6632 65.1386 71.0477 66.3269 70.5953 67.4414C70.5003 67.6592 70.4311 67.893 70.3618 68.1271C70.2044 68.6587 70.0467 69.1918 69.5856 69.5423C68.6614 70.35 67.5469 71.1616 66.2615 71.115C65.0763 71.121 65.724 69.4775 66.72 68.835C67.9601 68.0351 69.0463 66.9903 69.9836 65.857C71.2554 64.2221 72.267 62.2921 72.4379 60.199C72.533 59.1447 72.1564 57.9506 71.1933 57.3991ZM65.9586 62.7989C66.576 61.5582 67.2906 60.2825 68.4633 59.4845C68.9351 59.1272 69.7137 59.2787 69.937 59.8553C70.1098 60.566 69.8477 61.2864 69.5448 61.9213C68.6847 63.6765 67.4012 65.1988 65.9333 66.4764C65.432 66.9349 64.744 66.4714 64.8862 65.807C65.1091 64.7656 65.5038 63.7576 65.9586 62.7989ZM85.4723 61.366C84.3147 63.5014 81.9468 62.1956 83.4683 60.3023C83.5248 60.232 83.5825 60.1626 83.6413 60.0942C84.0587 59.6126 84.7771 59.1311 85.414 59.4592C86.1132 59.8728 85.748 60.799 85.4723 61.366ZM59.7047 84.8987C60.1938 83.1106 61.5085 81.7008 62.8558 80.4913C65.2692 78.461 68.3319 80.6913 67.1451 83.6133C66.3743 85.3957 65.2307 87.2306 63.3356 87.9607C62.3531 88.3296 61.0716 88.5606 60.2212 87.784C59.4154 87.0696 59.4697 85.8579 59.7047 84.8987Z" fill="#FEFFFE"/>
<path fill-rule="evenodd" clip-rule="evenodd" d="M88.9167 47.4617C83.7906 44.6366 77.8219 43.3435 71.9855 43.8192C68.2187 44.0891 64.514 45.0968 61.1083 46.7259C55.6289 49.3665 50.9437 53.6576 47.905 58.9311C43.379 66.5385 42.5053 76.1653 45.4721 84.4931C47.3749 89.9084 50.8505 94.7392 55.3437 98.3039C60.5648 102.445 67.1684 104.832 73.838 104.888C78.7075 104.995 83.6005 103.888 87.9478 101.696C93.4874 98.9545 98.1416 94.4713 101.116 89.0577C104.089 83.6832 105.393 77.3866 104.732 71.2762C103.852 61.3601 97.6581 52.1722 88.9167 47.4617ZM53.2776 55.7682C56.3998 51.2441 61.3141 48.1471 66.5779 46.7259C71.9175 45.2347 77.6959 45.2987 82.9768 47.0033C83.1766 47.066 83.3366 47.2025 83.494 47.3368C83.5156 47.3553 83.5011 47.3905 83.4728 47.3877C83.0071 47.3414 82.561 47.2056 82.1145 47.0698C81.7583 46.9614 81.4019 46.8529 81.0352 46.7897C78.876 46.3587 76.6392 46.1451 74.451 46.4713C73.0802 46.7179 71.6412 47.248 70.7715 48.3935C70.1172 49.244 70.0473 50.5799 70.8065 51.3876C71.6492 52.2788 73.1443 52.2303 74.0782 51.5099C74.2626 51.3745 74.4462 51.2347 74.6304 51.0944C75.5474 50.396 76.481 49.6849 77.6273 49.4343C80.4253 48.7409 83.3593 49.2984 86.0697 50.1041C89.3239 50.9915 92.4016 52.5972 94.8986 54.8748C99.0594 58.5504 101.56 63.8278 102.51 69.2392C103.337 73.8565 103.089 78.6815 101.655 83.1551C101.592 83.421 101.335 83.2232 101.404 82.9586C102.156 80.0783 102.664 77.0482 102.081 74.0953C101.755 72.5769 101.007 70.8644 99.4091 70.3459C98.186 69.913 96.6968 70.7537 96.5978 72.0837C96.415 73.1991 97.0899 74.07 97.739 74.9076C97.9182 75.1389 98.0954 75.3675 98.252 75.5981C99.8073 77.831 99.6151 80.7262 99.2347 83.2873C98.52 86.7551 97.3628 90.2074 95.2619 93.0966C92.0195 97.7507 86.8547 100.822 81.3965 102.135C76.6532 103.269 71.6263 103.261 66.8906 102.094C66.7557 102.054 66.6168 102.018 66.4771 101.983C65.9215 101.841 66.0527 101.464 66.6056 101.616C66.629 101.622 66.6524 101.629 66.6757 101.635C67.0139 101.728 67.3525 101.822 67.6983 101.877C70.1116 102.315 72.634 102.587 75.0455 101.983C76.1385 101.682 77.2454 101.162 77.9326 100.226C78.5696 99.3524 78.556 98.0148 77.7734 97.234C77.0959 96.5195 75.9678 96.3721 75.1016 96.8224C74.6087 97.0894 74.1714 97.4389 73.7341 97.7883C73.2587 98.1684 72.7831 98.5484 72.2359 98.8225C70.1176 99.8516 67.6595 99.7001 65.3994 99.3196C61.652 98.5837 57.9492 97.2245 54.928 94.8342C50.9165 91.7512 48.138 87.2541 46.7769 82.4116C45.3899 77.5311 45.3292 72.2996 46.4994 67.3687C46.59 66.9871 46.7164 66.6134 46.7946 66.2291C46.8969 65.7262 47.1952 65.9013 47.0756 66.4003C46.4664 68.9407 46.0707 71.567 46.474 74.1673C46.7109 75.5071 47.1808 76.9264 48.2895 77.7961C49.0584 78.431 50.2602 78.6642 51.1107 78.0543C52.0174 77.5245 52.3165 76.2663 51.8951 75.336C51.6558 74.7693 51.2831 74.2859 50.9099 73.8019C50.5928 73.3906 50.2753 72.9788 50.0389 72.515C48.9263 70.4821 49.0486 68.055 49.3438 65.8298C49.9651 62.265 51.1748 58.7428 53.2776 55.7682Z" fill="#FEFFFE"/>
<path d="M68.4617 59.4844C68.9335 59.1271 69.7121 59.2785 69.9354 59.8552C70.1082 60.5659 69.8461 61.2862 69.5432 61.9211C68.683 63.6764 67.3996 65.1987 65.9317 66.4763C65.4303 66.9347 64.7424 66.4713 64.8846 65.8069C65.1075 64.7654 65.5021 63.7575 65.9569 62.7988C66.5744 61.5581 67.2889 60.2824 68.4617 59.4844Z" fill="#3A73B8"/>
<path d="M83.6396 60.094C84.0571 59.6125 84.7755 59.131 85.4123 59.4591C86.1115 59.8727 85.7463 60.7989 85.4706 61.3658C84.3131 63.5012 81.9451 62.1955 83.4667 60.3022C83.5232 60.2319 83.5808 60.1625 83.6396 60.094Z" fill="#3A73B8"/>
<path d="M67.1433 83.6134C68.33 80.6914 65.2674 78.4608 62.8541 80.4912C61.5066 81.7008 60.1921 83.1105 59.7028 84.8987C59.4679 85.8579 59.4135 87.0695 60.2193 87.784C61.0698 88.5607 62.3513 88.3295 63.3337 87.9607C65.2288 87.2307 66.3724 85.3958 67.1433 83.6134Z" fill="#3A73B8"/>
<path fill-rule="evenodd" clip-rule="evenodd" d="M66.5763 46.7255C71.9159 45.2343 77.6942 45.2983 82.9756 47.0031C83.1754 47.0658 83.3353 47.2023 83.4928 47.3366C83.5146 47.3552 83.5 47.3903 83.4715 47.3875C83.0061 47.3412 82.56 47.2055 82.1136 47.0696C81.7574 46.9612 81.4008 46.8528 81.0339 46.7895C78.8748 46.3585 76.6378 46.1449 74.4497 46.4711C73.0789 46.7177 71.6402 47.2478 70.7703 48.3934C70.1159 49.2438 70.046 50.5797 70.8052 51.3874C71.6479 52.2786 73.143 52.2301 74.0769 51.5097C74.2616 51.3741 74.4454 51.2341 74.6299 51.0937C75.5467 50.3954 76.48 49.6846 77.6261 49.4341C80.424 48.7409 83.3581 49.2982 86.0684 50.104C89.3226 50.9913 92.4002 52.597 94.8973 54.8746C99.0583 58.5502 101.559 63.8276 102.508 69.239C103.336 73.8563 103.087 78.6813 101.654 83.1549C101.59 83.4208 101.333 83.223 101.402 82.9584C102.154 80.0781 102.663 77.048 102.08 74.0951C101.753 72.5767 101.006 70.8642 99.4078 70.3458C98.1846 69.9128 96.6953 70.7535 96.5965 72.0835C96.4137 73.1991 97.0887 74.0701 97.738 74.9078C97.917 75.1389 98.0942 75.3675 98.2508 75.5979C99.8061 77.8308 99.6138 80.7259 99.2335 83.2871C98.5187 86.7547 97.3615 90.2072 95.2606 93.0964C92.0183 97.7505 86.8534 100.822 81.3952 102.135C76.6518 103.269 71.625 103.261 66.8893 102.094C66.7545 102.054 66.6157 102.018 66.4761 101.983C65.9204 101.84 66.0516 101.464 66.6046 101.616C66.6277 101.622 66.6508 101.629 66.6738 101.635C67.0122 101.728 67.3511 101.822 67.697 101.876C70.1105 102.315 72.6327 102.587 75.0443 101.983C76.1372 101.682 77.2442 101.162 77.9313 100.226C78.5682 99.3522 78.5548 98.0144 77.7721 97.2338C77.0947 96.5193 75.9666 96.3719 75.1004 96.8222C74.6074 97.0892 74.17 97.4387 73.7327 97.7883C73.2572 98.1683 72.7817 98.5482 72.2347 98.8223C70.1163 99.8514 67.6582 99.6999 65.3981 99.3194C61.6507 98.5835 57.948 97.2243 54.9267 94.834C50.9149 91.7506 48.1364 87.2537 46.7753 82.4112C45.3883 77.5307 45.3276 72.2992 46.4978 67.3683C46.5883 66.9867 46.7147 66.613 46.7929 66.2287C46.8952 65.7258 47.1936 65.9009 47.0739 66.4C46.4647 68.9403 46.0691 71.5666 46.4724 74.1669C46.7092 75.5067 47.1791 76.926 48.2878 77.7957C49.0567 78.4308 50.2586 78.6638 51.109 78.0539C52.0158 77.5241 52.3148 76.2659 51.8935 75.3356C51.6541 74.7688 51.2813 74.2853 50.9081 73.8012C50.591 73.3899 50.2736 72.9782 50.0372 72.5146C48.9247 70.4817 49.047 68.0546 49.3421 65.8294C49.9635 62.2646 51.1731 58.7424 53.2759 55.7678C56.3981 51.2437 61.3125 48.1468 66.5763 46.7255ZM67.2986 57.5502C65.5589 58.488 64.3628 60.1637 63.4871 61.8918C62.9511 62.9158 62.5962 64.0088 62.3569 65.1296C62.0688 66.4784 60.5609 67.3559 60.2426 66.0139C59.92 65.0289 60.1329 64.0237 60.3415 63.0391C60.3915 62.8028 60.4413 62.5678 60.4834 62.3345C60.5573 62.0682 60.4205 61.8391 60.2885 61.618C60.2136 61.4926 60.0824 61.4034 59.9366 61.4117C59.2867 61.4486 58.6613 61.7989 58.365 62.3966C57.3709 64.2548 57.4583 66.7614 58.833 68.4099C60.2466 70.1991 62.2933 71.8974 64.3243 72.9339C64.4281 72.9869 64.5354 73.035 64.6463 73.0777C66.1812 73.6965 67.8601 73.1024 69.2236 72.3115C69.299 72.2678 69.3936 72.3275 69.3856 72.4143C69.3838 72.4341 69.382 72.454 69.3802 72.4738C69.3027 73.3175 68.7932 74.0235 68.0357 74.4029C67.8603 74.4908 67.6847 74.5787 67.5141 74.6737L67.3621 74.7538C64.7219 76.1451 62.0427 77.5569 59.8252 79.5822C58.1786 81.1276 56.8835 83.1838 56.635 85.4614C56.5146 87.2518 57.2272 89.2165 58.7961 90.201C60.4346 91.2863 62.5959 91.2262 64.3822 90.5526C66.6346 89.6944 68.3141 87.7836 69.4247 85.6984C71.0674 82.7469 71.3489 79.3044 71.5877 76.0018C71.6023 75.9165 71.6097 75.8234 71.6172 75.7282C71.6241 75.641 71.6312 75.5521 71.644 75.466C71.7148 74.991 72.2373 74.7834 72.6541 74.5447C74.9298 73.2414 77.1484 71.8393 79.2856 70.3188C79.581 70.1087 79.9908 70.1617 80.2155 70.4462C80.466 70.7634 80.3725 71.2232 80.0294 71.4368C78.9699 72.0965 77.9487 72.8298 77.1428 73.7941C73.5197 77.7571 73.4595 84.5585 77.2574 88.4263C79.199 90.4749 82.1834 91.3506 84.9465 90.9409C87.4862 90.5798 89.7966 88.9816 91.0783 86.7683C92.7868 83.9488 92.5072 80.0055 90.2861 77.5454C88.2083 75.2504 84.1639 75.295 82.1331 77.625C80.5351 79.3065 80.4827 82.2792 82.1505 83.9255C82.8262 84.5995 84.0029 85.007 84.8514 84.4265C85.3989 84.0325 85.3465 83.1898 84.9056 82.7333L84.8795 82.7018C84.3146 82.0197 83.6616 81.2314 83.8301 80.283C84.0008 79.0306 85.4009 78.2636 86.5795 78.5298C87.5889 78.6871 88.3949 79.4752 88.7695 80.3995C89.6531 82.5023 89.1522 85.108 87.5658 86.745C85.8844 88.4983 82.96 88.774 80.9312 87.4751C79.1291 86.3664 78.1039 84.3102 77.7874 82.2695C77.4556 79.8094 77.9274 77.1551 79.4534 75.1494C80.2987 74.0569 81.4311 73.1329 82.7346 72.6559C83.1565 72.5016 83.6114 72.4775 84.0587 72.5192C85.1697 72.6228 86.2998 72.7282 87.3773 72.3765C87.9872 72.1688 88.5809 71.4853 88.2705 70.8174C87.9347 70.132 87.1095 69.9262 86.422 69.7825C85.5387 69.6072 84.6596 69.7851 83.7923 69.9606C83.5154 70.0166 83.2179 70.0111 82.9884 69.8465C82.9541 69.8218 82.9207 69.7959 82.8884 69.7687C82.1611 69.1576 82.5724 68.0302 83.3141 67.4367C84.8051 66.2436 86.2044 64.9252 87.2373 63.309C88.0064 62.0644 88.5073 60.5363 88.1462 59.0742C87.8608 58.1053 87.0666 57.2821 86.0531 57.0976C84.364 56.6724 82.6358 57.5248 81.4882 58.7344C79.6437 60.7363 78.7078 63.5109 78.7932 66.2176C78.7833 66.437 78.8108 66.6606 78.8381 66.8839C78.9194 67.5463 78.5518 68.1308 78.0114 68.5224C77.1968 69.1127 76.3433 69.6506 75.4909 70.1878C75.1291 70.4159 74.7673 70.6439 74.409 70.8756C74.1471 71.0277 73.8891 71.1868 73.6311 71.3458C72.8117 71.8511 71.817 71.2378 72.008 70.2943C72.026 70.2057 72.0458 70.1174 72.0676 70.0295C72.1087 69.8638 72.186 69.7095 72.2903 69.5743C72.4786 69.33 72.6771 69.0928 72.8757 68.8555C73.3365 68.3049 73.7978 67.7535 74.1332 67.1127C74.5138 66.4273 74.873 65.5594 74.4769 64.8021C74.1138 64.241 73.31 64.2953 72.7838 64.5749C71.6615 65.138 71.046 66.3263 70.5936 67.4408C70.4986 67.6586 70.4294 67.8924 70.3602 68.1265C70.2028 68.6581 70.045 69.1912 69.5839 69.5417C68.6597 70.3494 67.5452 71.1611 66.2598 71.1145C65.0746 71.1207 65.7223 69.4769 66.7183 68.8343C67.9584 68.0343 69.0447 66.9896 69.982 65.8564C71.2538 64.2216 72.2654 62.2915 72.4362 60.1984C72.5314 59.1441 72.1547 57.95 71.1916 57.3986C69.9878 56.7425 68.4791 56.9289 67.2986 57.5502Z" fill="#3A73B8"/>
<path fill-rule="evenodd" clip-rule="evenodd" d="M90.3034 46.4576C84.8007 43.2752 78.3311 41.7937 71.9916 42.2772C65.6637 42.716 59.4931 45.1101 54.5147 49.0361C50.2198 52.4088 46.7889 56.8785 44.6822 61.921C42.4124 67.3421 41.6435 73.402 42.5735 79.2115C43.5191 85.7335 46.6141 91.8983 51.1867 96.6342C55.5011 101.114 61.1416 104.308 67.2132 105.661C73.0032 106.958 79.1526 106.653 84.7638 104.711C91.082 102.564 96.6798 98.3659 100.53 92.9159C104.326 87.6014 106.404 81.0988 106.444 74.5728C106.497 68.3285 104.687 62.0744 101.266 56.8494C98.5108 52.5758 94.7051 48.9954 90.3034 46.4576ZM61.1065 46.7256C64.5123 45.0965 68.217 44.0888 71.9838 43.8189C77.8203 43.3432 83.7891 44.6363 88.9149 47.4616C97.6561 52.1721 103.85 61.36 104.73 71.2761C105.392 77.3865 104.087 83.6831 101.114 89.0576C98.1397 94.4712 93.4856 98.9544 87.946 101.696C83.5988 103.888 78.7058 104.995 73.8362 104.888C67.1666 104.832 60.563 102.445 55.3419 98.3038C50.8489 94.7391 47.3733 89.9083 45.4705 84.4928C42.5036 76.165 43.3774 66.5382 47.9032 58.9308C50.9419 53.6573 55.6271 49.3662 61.1065 46.7256Z" fill="#3A73B8"/>
</g>
<defs>
<filter id="filter0_d_3376_3707" x="38.1875" y="42.1875" width="72.2578" height="72.2578" filterUnits="userSpaceOnUse" color-interpolation-filters="sRGB">
<feFlood flood-opacity="0" result="BackgroundImageFix"/>
<feColorMatrix in="SourceAlpha" type="matrix" values="0 0 0 0 0 0 0 0 0 0 0 0 0 0 0 0 0 0 127 0" result="hardAlpha"/>
<feOffset dy="4"/>
<feGaussianBlur stdDeviation="2"/>
<feComposite in2="hardAlpha" operator="out"/>
<feColorMatrix type="matrix" values="0 0 0 0 0 0 0 0 0 0 0 0 0 0 0 0 0 0 0.3 0"/>
<feBlend mode="normal" in2="BackgroundImageFix" result="effect1_dropShadow_3376_3707"/>
<feBlend mode="normal" in="SourceGraphic" in2="effect1_dropShadow_3376_3707" result="shape"/>
</filter>
<linearGradient id="paint0_linear_3376_3707" x1="0" y1="0" x2="159.759" y2="11.2355" gradientUnits="userSpaceOnUse">
<stop stop-color="#222126"/>
<stop offset="1" stop-color="#111116"/>
</linearGradient>
</defs>
</svg>
