<svg width="150" height="150" viewBox="0 0 150 150" fill="none" xmlns="http://www.w3.org/2000/svg">
<circle cx="75" cy="75" r="74.5" fill="url(#paint0_linear_3376_3702)" stroke="#F1CB68"/>
<g filter="url(#filter0_d_3376_3702)">
<rect x="33.6211" y="59.7344" width="6.52434" height="5.69912" rx="2.84956" fill="#0068B5"/>
<path d="M116.142 63.0025C116.142 61.1976 114.679 59.7344 112.874 59.7344C111.069 59.7344 109.606 61.1976 109.606 63.0025V86.4014C109.606 88.2063 111.069 89.6695 112.874 89.6695C114.679 89.6695 116.142 88.2063 116.142 86.4014V63.0025Z" fill="white"/>
<path d="M70.1157 64.5489C70.1157 62.7439 71.5789 61.2807 73.3839 61.2807C75.1888 61.2807 76.652 62.7439 76.652 64.5489V67.1949C76.652 68.323 77.5665 69.2375 78.6946 69.2375C79.8227 69.2375 80.7373 70.152 80.7373 71.2801V71.8277C80.7373 72.9558 79.8227 73.8703 78.6946 73.8703C77.5665 73.8703 76.652 74.7848 76.652 75.9129L76.652 82.2452C76.652 83.4748 77.2198 84.1565 77.9723 84.507C79.2707 85.1116 80.6692 86.0537 80.6692 87.486C80.6692 88.7575 79.6362 89.8019 78.3671 89.7232C71.6648 89.3076 70.1161 86.8537 70.1157 80.9999V64.5489Z" fill="white"/>
<path d="M50.0981 69.9588C50.0981 70.5962 50.8923 70.9487 51.4189 70.5896C52.8703 69.6001 54.8945 68.7624 57.4515 68.7624C63.307 68.7624 66.7794 73.1576 66.7794 76.8995V86.5375C66.7794 88.2673 65.3772 89.6695 63.6474 89.6695C61.9177 89.6695 60.5154 88.2673 60.5154 86.5375V77.9687C60.47 76.464 59.3716 73.4546 55.3408 73.4546C53.8315 73.4546 52.6633 73.9266 51.7769 74.6054C50.4047 75.6562 50.0981 77.5134 50.0981 79.2417V86.4012C50.0981 88.2062 48.6349 89.6694 46.83 89.6694C45.025 89.6694 43.5618 88.2062 43.5618 86.4012V72.5056C43.5618 70.7007 45.025 69.2375 46.83 69.2375H49.3768C49.7752 69.2375 50.0981 69.5604 50.0981 69.9588Z" fill="white"/>
<path d="M33.6211 72.5056C33.6211 70.7007 35.0843 69.2375 36.8893 69.2375C38.6942 69.2375 40.1574 70.7007 40.1574 72.5056V86.4012C40.1574 88.2062 38.6942 89.6694 36.8893 89.6694C35.0843 89.6694 33.6211 88.2062 33.6211 86.4012V72.5056Z" fill="white"/>
<path fill-rule="evenodd" clip-rule="evenodd" d="M94.627 85.3931C90.736 85.3931 92.3637 81.3541 96.2546 81.3541H104.982C106.032 81.3541 106.883 80.5031 106.883 79.4534C106.883 73.5489 101.396 68.7624 94.627 68.7624C87.8584 68.7624 82.3713 73.549 82.3713 79.4535C82.3713 85.3581 87.8584 90.1447 94.627 90.1447C97.4692 90.1447 100.086 89.2993 102.163 87.8847C103.451 87.0078 103.214 85.1779 101.918 84.3129C100.843 83.5949 99.4143 83.8357 98.2844 84.4648C97.2272 85.0534 95.9728 85.3931 94.627 85.3931ZM94.627 77.434C97.6768 77.434 99.1541 74.268 96.1643 73.6661C95.6703 73.5666 95.1557 73.514 94.627 73.514C94.0983 73.514 93.5837 73.5666 93.0896 73.6661C90.0998 74.268 91.5772 77.434 94.627 77.434Z" fill="white"/>
</g>
<defs>
<filter id="filter0_d_3376_3702" x="29.6211" y="59.7344" width="90.5195" height="38.4102" filterUnits="userSpaceOnUse" color-interpolation-filters="sRGB">
<feFlood flood-opacity="0" result="BackgroundImageFix"/>
<feColorMatrix in="SourceAlpha" type="matrix" values="0 0 0 0 0 0 0 0 0 0 0 0 0 0 0 0 0 0 127 0" result="hardAlpha"/>
<feOffset dy="4"/>
<feGaussianBlur stdDeviation="2"/>
<feComposite in2="hardAlpha" operator="out"/>
<feColorMatrix type="matrix" values="0 0 0 0 0 0 0 0 0 0 0 0 0 0 0 0 0 0 0.3 0"/>
<feBlend mode="normal" in2="BackgroundImageFix" result="effect1_dropShadow_3376_3702"/>
<feBlend mode="normal" in="SourceGraphic" in2="effect1_dropShadow_3376_3702" result="shape"/>
</filter>
<linearGradient id="paint0_linear_3376_3702" x1="0" y1="0" x2="159.759" y2="11.2355" gradientUnits="userSpaceOnUse">
<stop stop-color="#222126"/>
<stop offset="1" stop-color="#111116"/>
</linearGradient>
</defs>
</svg>
