<svg width="16" height="16" viewBox="0 0 16 16" fill="none" xmlns="http://www.w3.org/2000/svg">
<path d="M8.06 8.3334L6.52667 9.86007C6.46418 9.92204 6.41459 9.99578 6.38074 10.077C6.34689 10.1583 6.32947 10.2454 6.32947 10.3334C6.32947 10.4214 6.34689 10.5085 6.38074 10.5898C6.41459 10.671 6.46418 10.7448 6.52667 10.8067C6.58864 10.8692 6.66238 10.9188 6.74362 10.9527C6.82486 10.9865 6.91199 11.0039 7 11.0039C7.08801 11.0039 7.17515 10.9865 7.25638 10.9527C7.33762 10.9188 7.41136 10.8692 7.47333 10.8067L10.14 8.14007C10.2007 8.07666 10.2483 8.0019 10.28 7.92007C10.3467 7.75776 10.3467 7.57571 10.28 7.4134C10.2483 7.33157 10.2007 7.2568 10.14 7.1934L7.47333 4.52673C7.41117 4.46457 7.33738 4.41527 7.25617 4.38163C7.17495 4.34799 7.08791 4.33067 7 4.33067C6.91209 4.33067 6.82505 4.34799 6.74383 4.38163C6.66262 4.41527 6.58883 4.46457 6.52667 4.52673C6.46451 4.58889 6.4152 4.66269 6.38156 4.7439C6.34792 4.82512 6.33061 4.91216 6.33061 5.00007C6.33061 5.08797 6.34792 5.17502 6.38156 5.25623C6.4152 5.33745 6.46451 5.41124 6.52667 5.4734L8.06 7.00007H1.66667C1.48986 7.00007 1.32029 7.0703 1.19526 7.19533C1.07024 7.32035 1 7.48992 1 7.66673C1 7.84354 1.07024 8.01311 1.19526 8.13814C1.32029 8.26316 1.48986 8.3334 1.66667 8.3334H8.06ZM7.66667 1.00007C6.42073 0.994504 5.19816 1.33821 4.13765 1.99219C3.07713 2.64618 2.2211 3.58427 1.66667 4.70007C1.5871 4.8592 1.57401 5.04342 1.63027 5.2122C1.68653 5.38098 1.80754 5.5205 1.96667 5.60007C2.1258 5.67963 2.31002 5.69272 2.4788 5.63646C2.64758 5.5802 2.7871 5.4592 2.86667 5.30007C3.28813 4.44895 3.92922 3.72581 4.7237 3.20539C5.51818 2.68497 6.43721 2.38614 7.38584 2.33979C8.33446 2.29344 9.27825 2.50125 10.1197 2.94174C10.9611 3.38223 11.6696 4.03942 12.1721 4.8454C12.6745 5.65137 12.9526 6.5769 12.9776 7.52632C13.0026 8.47575 12.7736 9.41463 12.3143 10.2459C11.855 11.0773 11.1821 11.7708 10.365 12.255C9.54796 12.7392 8.61641 12.9964 7.66667 13.0001C6.67259 13.0044 5.69744 12.7283 4.85313 12.2036C4.00882 11.6788 3.32957 10.9267 2.89333 10.0334C2.81377 9.87427 2.67425 9.75327 2.50547 9.697C2.33668 9.64074 2.15246 9.65384 1.99333 9.7334C1.8342 9.81297 1.7132 9.95249 1.65694 10.1213C1.60068 10.2901 1.61377 10.4743 1.69333 10.6334C2.22189 11.6971 3.02501 12.6002 4.01965 13.2494C5.01428 13.8986 6.1643 14.2703 7.35075 14.3261C8.5372 14.3818 9.71699 14.1195 10.7681 13.5664C11.8192 13.0133 12.7035 12.1894 13.3294 11.1799C13.9553 10.1705 14.3002 9.01216 14.3283 7.82474C14.3565 6.63731 14.0669 5.46393 13.4895 4.42595C12.9121 3.38798 12.0679 2.52311 11.0442 1.9208C10.0205 1.3185 8.85442 1.00062 7.66667 1.00007Z" fill="#FF3D3D"/>
</svg>
