<svg width="150" height="150" viewBox="0 0 150 150" fill="none" xmlns="http://www.w3.org/2000/svg">
<circle cx="75" cy="75" r="74.5" fill="url(#paint0_linear_3376_3712)" stroke="#F1CB68"/>
<g filter="url(#filter0_d_3376_3712)">
<ellipse cx="75" cy="74.4981" rx="30" ry="29.4981" fill="#12100E"/>
<path d="M56.952 85.9898L54.6197 88.9114C54.5473 89.0022 54.5078 89.1148 54.5078 89.2309C54.5078 89.5137 54.7371 89.7429 55.0199 89.7429H66.0486C66.3318 89.7429 66.5614 89.5134 66.5614 89.2302C66.5614 89.1145 66.5223 89.0022 66.4504 88.9116L62.4027 83.8063C61.9518 83.2376 61.7065 82.5331 61.7065 81.8074C61.7065 78.3558 66.403 77.3266 67.8465 80.4619L71.8208 89.0943C72.0028 89.4897 72.3982 89.7429 72.8335 89.7429C73.2915 89.7429 73.703 89.4628 73.8708 89.0366L76.2187 83.0741C77.5347 79.7321 82.4989 80.6743 82.4989 84.2661C82.4989 85.1758 82.1179 86.0441 81.4484 86.6601L79.0045 88.9088C78.9056 88.9998 78.8493 89.128 78.8493 89.2624C78.8493 89.5278 79.0645 89.7429 79.3298 89.7429H94.337C94.6039 89.7429 94.8203 89.5265 94.8203 89.2596C94.8203 89.1268 94.7657 88.9998 94.6692 88.9086L93.0458 87.3725C91.913 86.3008 91.2712 84.81 91.2712 83.2505V64.7282C91.2712 63.1929 91.9149 61.7278 93.0458 60.6893L94.6427 59.2228C94.7559 59.1188 94.8203 58.9722 94.8203 58.8185C94.8203 58.5153 94.5745 58.2695 94.2714 58.2695H88.2165C85.5458 58.2695 83.1381 59.878 82.1157 62.3452L81.9845 62.6619C79.6104 68.3908 71.555 68.5541 68.9506 62.9262L68.7147 62.4164C67.5447 59.888 65.0124 58.2695 62.2264 58.2695H55.6537C55.3352 58.2695 55.077 58.5277 55.077 58.8463C55.077 58.984 55.1263 59.1171 55.2159 59.2217L57.2366 61.5782C58.6302 63.2034 59.3962 65.2735 59.3962 67.4144V79.0104C59.3962 81.5467 58.5344 84.0077 56.952 85.9898Z" fill="white"/>
</g>
<defs>
<filter id="filter0_d_3376_3712" x="41" y="45" width="68" height="66.9961" filterUnits="userSpaceOnUse" color-interpolation-filters="sRGB">
<feFlood flood-opacity="0" result="BackgroundImageFix"/>
<feColorMatrix in="SourceAlpha" type="matrix" values="0 0 0 0 0 0 0 0 0 0 0 0 0 0 0 0 0 0 127 0" result="hardAlpha"/>
<feOffset dy="4"/>
<feGaussianBlur stdDeviation="2"/>
<feComposite in2="hardAlpha" operator="out"/>
<feColorMatrix type="matrix" values="0 0 0 0 0 0 0 0 0 0 0 0 0 0 0 0 0 0 0.3 0"/>
<feBlend mode="normal" in2="BackgroundImageFix" result="effect1_dropShadow_3376_3712"/>
<feBlend mode="normal" in="SourceGraphic" in2="effect1_dropShadow_3376_3712" result="shape"/>
</filter>
<linearGradient id="paint0_linear_3376_3712" x1="0" y1="0" x2="159.759" y2="11.2355" gradientUnits="userSpaceOnUse">
<stop stop-color="#222126"/>
<stop offset="1" stop-color="#111116"/>
</linearGradient>
</defs>
</svg>
