<svg width="16" height="16" viewBox="0 0 16 16" fill="none" xmlns="http://www.w3.org/2000/svg">
<g clip-path="url(#clip0_103_128)">
<mask id="mask0_103_128" style="mask-type:luminance" maskUnits="userSpaceOnUse" x="0" y="0" width="16" height="16">
<path d="M0 0H16V16H0V0Z" fill="white"/>
</mask>
<g mask="url(#mask0_103_128)">
<path d="M13.0611 5.28593C13.0346 5.65354 12.9492 6.00379 12.8048 6.3367C12.6652 6.65842 12.4798 6.94361 12.2484 7.19225C12.0144 7.4436 11.751 7.63904 11.458 7.77858C11.1481 7.92619 10.8287 8 10.4999 8C10.1711 8 9.85166 7.92623 9.54166 7.77868C9.24853 7.63917 8.98496 7.44377 8.75094 7.19248C8.5193 6.94375 8.33375 6.65849 8.19428 6.33671C8.04989 6.00358 7.96467 5.65311 7.93864 5.28531C7.91092 4.89449 7.95546 4.52625 8.07225 4.18059C8.18707 3.84078 8.36444 3.54297 8.60436 3.28714C8.84159 3.0342 9.12344 2.83981 9.44991 2.70399C9.77679 2.568 10.1268 2.5 10.4999 2.5C10.8733 2.5 11.2242 2.56952 11.5527 2.70857C11.8781 2.8463 12.1594 3.04262 12.3967 3.29754C12.6356 3.55425 12.8125 3.85179 12.9273 4.19014C13.0443 4.53508 13.0889 4.90029 13.0611 5.28593ZM12.0637 5.21398C12.0997 4.71503 11.9667 4.30333 11.6647 3.97886C11.3676 3.65962 10.9793 3.5 10.4999 3.5C10.0171 3.5 9.62839 3.65707 9.33377 3.97122C9.03267 4.29227 8.90012 4.70676 8.93614 5.21469C8.97237 5.72649 9.15457 6.15858 9.48274 6.51096C9.78637 6.83699 10.1254 7 10.4999 7C10.8741 7 11.2129 6.83699 11.5163 6.51096C11.8443 6.15854 12.0268 5.72616 12.0637 5.21398Z" fill="#9CA3AF"/>
<path d="M10.4998 10C10.0275 10 9.57289 10.0575 9.13586 10.1724C8.69472 10.2884 8.29629 10.4566 7.94058 10.677C7.18239 11.1469 6.70196 11.7886 6.4993 12.6024C6.5024 12.59 6.49778 12.5748 6.48545 12.5567C6.45966 12.5189 6.42464 12.5 6.38037 12.5H14.6195C14.5749 12.5 14.5397 12.519 14.5138 12.557C14.5018 12.5746 14.4972 12.5892 14.5001 12.6009C14.2981 11.7768 13.8183 11.1319 13.0607 10.6662C12.7065 10.4484 12.3083 10.2826 11.8662 10.1686C11.4302 10.0562 10.9748 10 10.4998 10ZM10.4998 9C11.0593 9 11.598 9.06674 12.1158 9.20023C12.6552 9.33928 13.1447 9.54395 13.5844 9.81424C14.054 10.1029 14.4465 10.4543 14.762 10.8683C15.0992 11.311 15.3356 11.8089 15.4712 12.3622C15.5393 12.6392 15.4957 12.8918 15.3403 13.12C15.2608 13.2367 15.1599 13.3283 15.0376 13.3948C14.9088 13.4649 14.7694 13.5 14.6195 13.5H6.38037C6.23049 13.5 6.09113 13.465 5.96227 13.395C5.83995 13.3285 5.739 13.2369 5.65944 13.1203C5.50323 12.8914 5.45974 12.6382 5.52894 12.3607C5.66491 11.8148 5.90141 11.3215 6.23844 10.8808C6.55392 10.4684 6.94572 10.1171 7.41384 9.82702C7.85451 9.55395 8.34374 9.34671 8.88152 9.20528C9.40191 9.06843 9.94132 9 10.4998 9Z" fill="#9CA3AF"/>
<path d="M6.74815 5.84655C6.72617 6.1516 6.65475 6.44325 6.5339 6.72151C6.41719 6.99022 6.26219 7.22904 6.06888 7.43799C5.87243 7.65033 5.65132 7.81584 5.40556 7.9345C5.14253 8.0615 4.87174 8.125 4.59319 8.125C4.31466 8.125 4.04386 8.06154 3.78078 7.93461C3.53487 7.81597 3.31366 7.65051 3.11713 7.43822C2.92363 7.2292 2.76855 6.9903 2.6519 6.72153C2.53103 6.44305 2.45979 6.15118 2.43818 5.84594C2.41514 5.52012 2.45296 5.21194 2.55166 4.92142C2.64879 4.63548 2.79849 4.38431 3.00076 4.16791C3.20099 3.9537 3.43829 3.7889 3.71268 3.67351C3.98776 3.55784 4.28126 3.5 4.59319 3.5C4.90557 3.5 5.20002 3.55915 5.47654 3.67744C5.74994 3.79441 5.98672 3.96078 6.18689 4.17655C6.38822 4.39357 6.53743 4.64438 6.63451 4.92899C6.73345 5.21902 6.77133 5.52487 6.74815 5.84655ZM5.75073 5.77469C5.77738 5.40479 5.6784 5.09878 5.45378 4.85666C5.2332 4.61889 4.94633 4.5 4.59319 4.5C4.23718 4.5 3.94989 4.61692 3.73131 4.85076C3.50757 5.09014 3.40902 5.39833 3.43569 5.77532C3.46303 6.16151 3.60145 6.48936 3.85096 6.75889C4.07691 7.00296 4.32432 7.125 4.59319 7.125C4.86181 7.125 5.10903 7.00296 5.33483 6.75889C5.58425 6.48929 5.72288 6.16122 5.75073 5.77469Z" fill="#9CA3AF"/>
<path fill-rule="evenodd" clip-rule="evenodd" d="M4.09646 9C4.73226 9 5.27742 9.10413 5.73194 9.31238C5.98299 9.42739 6.27975 9.31712 6.39477 9.06608C6.50979 8.81503 6.39952 8.51827 6.14848 8.40325C5.56172 8.13442 4.87771 8 4.09646 8C3.14551 8 2.3065 8.22517 1.57945 8.67552C1.19497 8.91368 0.872935 9.20234 0.613353 9.54149C0.335491 9.90452 0.140538 10.3108 0.0284912 10.7603C-0.0337451 11.0115 0.00598054 11.2409 0.147668 11.4483C0.220357 11.5548 0.312629 11.6384 0.424485 11.6992C0.542391 11.7633 0.669715 11.7953 0.80646 11.7953H4.31521C4.59135 11.7953 4.81521 11.5715 4.81521 11.2953C4.81521 11.0192 4.59135 10.7953 4.31521 10.7953H1.05986C1.24057 10.2689 1.5893 9.84573 2.10604 9.52565C2.67178 9.17522 3.33525 9 4.09646 9Z" fill="#9CA3AF"/>
</g>
</g>
<defs>
<clipPath id="clip0_103_128">
<rect width="16" height="16" fill="white"/>
</clipPath>
</defs>
</svg>
