<svg width="150" height="150" viewBox="0 0 150 150" fill="none" xmlns="http://www.w3.org/2000/svg">
<circle cx="75" cy="75" r="74.5" fill="url(#paint0_linear_3376_3720)" stroke="#F1CB68"/>
<path d="M41.8781 90.8582C39.2871 93.0914 39.7668 96.9387 45.6783 99.3445C51.5898 101.75 58.4608 102.248 64.5065 100.908C64.3338 100.908 64.852 100.908 64.5065 100.908V99.6809C64.5065 96.6544 61.4256 94.6035 58.6335 95.7713C56.3879 96.6646 54.1424 96.888 51.8968 96.218C50.1694 95.548 50.5149 94.2081 52.5877 93.0914L62.2763 88.7345C63.6336 88.1242 64.5065 86.7745 64.5065 85.2863C64.5065 82.5503 61.6904 80.7202 59.1902 81.8313L47.9239 86.8383C45.851 87.7316 43.7782 89.0716 41.8781 90.8582ZM81.9529 57.3594V65.2321C81.9529 73.8157 89.923 83.8013 93.186 75.8621C94.0683 73.7153 94.5626 70.8817 94.5626 67.4091C94.5626 55.5728 91.2806 50.213 81.7801 45.9698C74.2077 42.5939 66.4066 48.4705 66.4066 56.7614V100.788C66.4066 103.283 67.9397 105.522 70.2662 106.425C74.2286 107.962 78.4981 105.038 78.4981 100.788V55.3495C78.4981 52.8929 78.4981 51.1063 79.88 51.7763C81.7801 52.4463 81.9529 54.9028 81.9529 57.3594ZM104.409 85.7217C99.3992 83.4885 94.0444 82.5952 88.8623 83.2651C86.8192 83.4302 84.8653 84.0099 82.9334 84.7504C81.4859 85.3053 80.571 86.7259 80.571 88.2761C80.571 91.1312 83.5492 93.0097 86.1258 91.7797L91.7988 89.0716C94.0444 88.1783 96.29 87.955 98.5355 88.6249C100.263 89.2949 99.9174 90.6349 97.8446 91.7515L82.7477 98.9732C81.4176 99.6095 80.571 100.953 80.571 102.428C80.571 105.244 83.5095 107.097 86.051 105.883L104.409 97.1113C105.591 96.4999 106.692 95.784 107.712 94.8203C108.695 93.8921 109.576 92.7275 109.612 91.3763C109.664 89.4811 108.339 87.3608 104.409 85.7217Z" fill="#0070D1"/>
<defs>
<linearGradient id="paint0_linear_3376_3720" x1="0" y1="0" x2="159.759" y2="11.2355" gradientUnits="userSpaceOnUse">
<stop stop-color="#222126"/>
<stop offset="1" stop-color="#111116"/>
</linearGradient>
</defs>
</svg>
