<svg width="16" height="16" viewBox="0 0 16 16" fill="none" xmlns="http://www.w3.org/2000/svg">
<g clip-path="url(#clip0_103_115)">
<mask id="mask0_103_115" style="mask-type:luminance" maskUnits="userSpaceOnUse" x="0" y="0" width="16" height="16">
<path d="M0 0H16V16H0V0Z" fill="white"/>
</mask>
<g mask="url(#mask0_103_115)">
<path fill-rule="evenodd" clip-rule="evenodd" d="M13.5127 8.00294C13.5119 8.1229 13.5072 8.24271 13.4984 8.36235C13.4968 8.38443 13.495 8.40651 13.4931 8.42856L14.6862 9.36442C14.6898 9.36719 14.6933 9.37002 14.6968 9.3729C14.8543 9.50346 14.951 9.66946 14.9869 9.8709C15.0228 10.0723 14.9894 10.2616 14.8866 10.4386L13.5505 12.7502C13.4448 12.9286 13.2957 13.0515 13.1034 13.1187C12.9111 13.1858 12.7197 13.1832 12.5293 13.1108L11.1157 12.5434C10.9967 12.6253 10.8755 12.7022 10.7523 12.7739C10.6295 12.8455 10.5041 12.9122 10.3762 12.9743L10.1659 14.4705C10.1651 14.476 10.1643 14.4815 10.1633 14.487C10.1285 14.6862 10.0344 14.8516 9.881 14.9834C9.72756 15.1151 9.54976 15.1831 9.34761 15.1874L6.6639 15.1875C6.45987 15.184 6.28155 15.119 6.12893 14.9923C5.97633 14.8657 5.88005 14.7053 5.84009 14.5111C5.83797 14.5007 5.83617 14.4903 5.8347 14.4799L5.62372 12.9855C5.49319 12.9226 5.36618 12.8549 5.24269 12.7826C5.11953 12.7104 4.99943 12.6335 4.8824 12.5517L3.47968 13.1163C3.28352 13.1911 3.08929 13.195 2.89699 13.1279C2.7047 13.0609 2.55654 12.9399 2.45251 12.7648L1.11288 10.4471C1.01037 10.2708 0.977083 10.0819 1.01301 9.88026C1.04893 9.67866 1.14578 9.51258 1.30355 9.38202C1.30686 9.37925 1.3102 9.37655 1.31357 9.37394L2.50612 8.43671C2.49255 8.27976 2.48577 8.13388 2.48577 7.99907C2.48577 7.86087 2.49241 7.71816 2.50569 7.57096L1.31191 6.6332C1.30718 6.62948 1.30252 6.62568 1.29793 6.6218C1.14289 6.49071 1.04804 6.32512 1.01338 6.12506C0.978724 5.925 1.01235 5.73716 1.11425 5.56155L2.45038 3.2498C2.55618 3.07136 2.70524 2.94855 2.89755 2.88137C3.08986 2.81419 3.28121 2.81681 3.47161 2.88921L4.88522 3.45666C5.00424 3.37469 5.12539 3.29783 5.24866 3.22606C5.3715 3.15455 5.49686 3.08777 5.62475 3.02574L5.83502 1.52948C5.83579 1.52397 5.83666 1.51847 5.83762 1.51298C5.87243 1.3138 5.96654 1.14834 6.11996 1.01662C6.27337 0.884895 6.45116 0.816893 6.65332 0.812612L9.33703 0.8125C9.54106 0.81598 9.7194 0.881034 9.87204 1.00766C10.0246 1.13429 10.1209 1.29472 10.1608 1.48896C10.163 1.49928 10.1648 1.50967 10.1662 1.52011L10.3772 3.01446C10.5077 3.07746 10.6347 3.14513 10.7582 3.21746C10.8814 3.28961 11.0015 3.36656 11.1185 3.44832L12.5212 2.88367C12.7174 2.80891 12.9116 2.80504 13.104 2.87207C13.2962 2.93909 13.4444 3.06013 13.5484 3.2352L14.888 5.55292C14.9905 5.72917 15.0238 5.9181 14.988 6.11972C14.952 6.32134 14.8552 6.48743 14.6974 6.618C14.6941 6.62074 14.6908 6.62343 14.6874 6.62608L13.4933 7.56444C13.5062 7.72551 13.5127 7.87069 13.5127 8V8.00294ZM12.5127 7.99851C12.5126 7.89612 12.5076 7.78201 12.4976 7.65619C12.482 7.48722 12.5077 7.32479 12.5747 7.1689C12.6417 7.013 12.742 6.88238 12.8757 6.77704L13.9521 5.93196L12.7582 3.86626L11.4918 4.37605C11.3354 4.43895 11.1735 4.46093 11.0061 4.44198C10.8387 4.42303 10.6855 4.36523 10.5465 4.26856C10.4512 4.20189 10.3533 4.13915 10.2528 4.08033C10.1524 4.02152 10.0506 3.96721 9.94748 3.91741C9.79606 3.84535 9.67065 3.74182 9.57124 3.6068C9.47178 3.47179 9.41002 3.32074 9.38596 3.15364L9.19749 1.81249L6.80509 1.81239L6.61507 3.16452C6.59214 3.32933 6.53178 3.47904 6.43397 3.61366C6.33617 3.74828 6.21228 3.85203 6.06231 3.92492C5.95671 3.97611 5.8532 4.03123 5.75178 4.09028C5.65036 4.14932 5.55209 4.21159 5.45696 4.27709C5.31864 4.37349 5.16574 4.43134 4.99825 4.45066C4.83077 4.46998 4.6681 4.44822 4.51026 4.38537L3.24385 3.87533L2.04983 5.94122L3.12275 6.78404C3.25534 6.88802 3.35526 7.01725 3.42253 7.17173C3.4898 7.32621 3.51625 7.4884 3.50186 7.65828C3.49114 7.7765 3.48577 7.8901 3.48577 7.99907C3.48577 8.10515 3.49108 8.21969 3.50169 8.34268C3.51762 8.51135 3.49237 8.67363 3.42596 8.82949C3.35954 8.98536 3.25927 9.11651 3.12517 9.22296L2.04882 10.068L3.2427 12.1338L4.50916 11.6239C4.6655 11.5611 4.8274 11.5391 4.99485 11.558C5.1623 11.577 5.31549 11.6348 5.45441 11.7315C5.5498 11.7981 5.6477 11.8609 5.74811 11.9197C5.84853 11.9785 5.95031 12.0328 6.05346 12.0826C6.20487 12.1546 6.33029 12.2582 6.42973 12.3932C6.52917 12.5282 6.59091 12.6792 6.61497 12.8463L6.80345 14.1875L9.19585 14.1876L9.38586 12.8355C9.40879 12.6707 9.46914 12.521 9.56692 12.3863C9.66473 12.2517 9.78862 12.148 9.9386 12.0751C10.0442 12.0239 10.1477 11.9687 10.2492 11.9097C10.3506 11.8507 10.4489 11.7884 10.544 11.7229C10.6823 11.6265 10.8352 11.5687 11.0027 11.5493C11.1701 11.53 11.3328 11.5518 11.4907 11.6147L12.7571 12.1247L13.9512 10.0587L12.6563 9.04311C12.6218 9.01604 12.5913 8.98496 12.565 8.94988C12.5387 8.91481 12.5173 8.87692 12.5009 8.83623C12.4845 8.79553 12.4737 8.75341 12.4684 8.70986C12.4632 8.66632 12.4636 8.62283 12.4698 8.5794C12.4835 8.48292 12.4939 8.38611 12.5011 8.28896C12.5082 8.19277 12.512 8.09645 12.5127 8V7.99851ZM9.7674 6.23308C9.34631 5.812 8.83951 5.5717 8.247 5.51219L8.24617 5.51211C7.52705 5.44108 6.89581 5.64375 6.35243 6.12011C5.80905 6.59647 5.52551 7.19576 5.50181 7.91798C5.4781 8.64021 5.72173 9.25681 6.23269 9.76778C6.74366 10.2787 7.36025 10.5223 8.08248 10.4987C8.80471 10.4749 9.404 10.1914 9.88036 9.64802C10.3567 9.10465 10.5594 8.47341 10.4884 7.7543C10.4288 7.16123 10.1885 6.65416 9.7674 6.23308ZM8.14706 6.50719L8.14789 6.50727C8.50342 6.54316 8.80755 6.68746 9.06028 6.94019C9.3132 7.19311 9.45751 7.49724 9.4932 7.85258C9.53578 8.28405 9.41418 8.6628 9.1284 8.98882C8.84258 9.31485 8.48301 9.48498 8.04967 9.49922C7.61634 9.51341 7.24638 9.36722 6.9398 9.06066C6.63322 8.75408 6.48705 8.38413 6.50127 7.95079C6.51549 7.51745 6.68562 7.15788 7.01165 6.87207C7.33746 6.58644 7.71593 6.46481 8.14706 6.50719Z" fill="#9CA3AF"/>
</g>
</g>
<defs>
<clipPath id="clip0_103_115">
<rect width="16" height="16" fill="white"/>
</clipPath>
</defs>
</svg>
