<svg width="16" height="16" viewBox="0 0 16 16" fill="none" xmlns="http://www.w3.org/2000/svg">
<g clip-path="url(#clip0_103_150)">
<mask id="mask0_103_150" style="mask-type:luminance" maskUnits="userSpaceOnUse" x="0" y="0" width="16" height="16">
<path d="M0 0H16V16H0V0Z" fill="white"/>
</mask>
<g mask="url(#mask0_103_150)">
<path d="M7.9997 11.2H3.1997V7.20001H1.5997V13.6C1.5997 14.0425 1.9572 14.4 2.3997 14.4H8.7997C9.24218 14.4 9.5997 14.0425 9.5997 13.6V7.20001H7.9997V11.2ZM15.8647 5.15501L13.7322 1.95501C13.5822 1.73251 13.3322 1.60001 13.0647 1.60001H2.9347C2.6672 1.60001 2.4172 1.73251 2.2697 1.95501L0.137197 5.15501C-0.217803 5.68751 0.162197 6.40001 0.802201 6.40001H15.1997C15.8372 6.40001 16.2172 5.68751 15.8647 5.15501ZM12.7997 14C12.7997 14.22 12.9797 14.4 13.1997 14.4H13.9997C14.2197 14.4 14.3997 14.22 14.3997 14V7.20001H12.7997V14Z" fill="#9CA3AF"/>
</g>
</g>
<defs>
<clipPath id="clip0_103_150">
<rect width="16" height="16" fill="white"/>
</clipPath>
</defs>
</svg>
