<svg width="20" height="18" viewBox="0 0 20 18" fill="none" xmlns="http://www.w3.org/2000/svg">
<mask id="mask0_72_68" style="mask-type:luminance" maskUnits="userSpaceOnUse" x="0" y="0" width="20" height="18">
<path d="M0 0H20V17.7778H0V0Z" fill="white"/>
</mask>
<g mask="url(#mask0_72_68)">
<path d="M18.3333 1.97531H1.66667C0.746528 1.97531 0 2.63889 0 3.45679V3.95062H20V3.45679C20 2.63889 19.2535 1.97531 18.3333 1.97531ZM0 14.321C0 15.1389 0.746528 15.8025 1.66667 15.8025H18.3333C19.2535 15.8025 20 15.1389 20 14.321V4.93827H0V14.321ZM12.2222 7.1605C12.2222 7.02469 12.3472 6.91358 12.5 6.91358H17.5C17.6528 6.91358 17.7778 7.02469 17.7778 7.1605V7.65432C17.7778 7.79013 17.6528 7.90124 17.5 7.90124H12.5C12.3472 7.90124 12.2222 7.79013 12.2222 7.65432V7.1605ZM12.2222 9.1358C12.2222 9 12.3472 8.88889 12.5 8.88889H17.5C17.6528 8.88889 17.7778 9 17.7778 9.1358V9.62963C17.7778 9.76543 17.6528 9.87655 17.5 9.87655H12.5C12.3472 9.87655 12.2222 9.76543 12.2222 9.62963V9.1358ZM12.2222 11.1111C12.2222 10.9753 12.3472 10.8642 12.5 10.8642H17.5C17.6528 10.8642 17.7778 10.9753 17.7778 11.1111V11.6049C17.7778 11.7407 17.6528 11.8519 17.5 11.8519H12.5C12.3472 11.8519 12.2222 11.7407 12.2222 11.6049V11.1111ZM6.11111 6.91358C7.33681 6.91358 8.33333 7.79938 8.33333 8.88889C8.33333 9.9784 7.33681 10.8642 6.11111 10.8642C4.88542 10.8642 3.88889 9.9784 3.88889 8.88889C3.88889 7.79938 4.88542 6.91358 6.11111 6.91358ZM2.32986 13.216C2.62153 12.4228 3.45833 11.8519 4.44444 11.8519H4.72917C5.15625 12.0093 5.62153 12.0988 6.11111 12.0988C6.6007 12.0988 7.06944 12.0093 7.49306 11.8519H7.77778C8.76389 11.8519 9.6007 12.4228 9.89236 13.216C10.0035 13.5216 9.71181 13.8272 9.35069 13.8272H2.87153C2.51042 13.8272 2.21875 13.5185 2.32986 13.216Z" fill="#D4AF37"/>
</g>
</svg>
