<svg width="24" height="24" viewBox="0 0 24 24" fill="none" xmlns="http://www.w3.org/2000/svg">
<mask id="mask0_3135_4936" style="mask-type:luminance" maskUnits="userSpaceOnUse" x="0" y="0" width="24" height="24">
<path d="M0 0H24V24H0V0Z" fill="white"/>
</mask>
<g mask="url(#mask0_3135_4936)">
<path d="M20.25 10.3711V19.5C20.25 20.3284 19.9571 21.0355 19.3713 21.6213C18.7855 22.2071 18.0784 22.5 17.25 22.5H6.75C5.92157 22.5 5.21447 22.2071 4.62868 21.6213C4.04289 21.0355 3.75 20.3284 3.75 19.5V4.5C3.75 3.67157 4.04289 2.96447 4.62868 2.37868C5.21447 1.79289 5.92157 1.5 6.75 1.5H11.3789C11.6772 1.50005 11.9642 1.55714 12.2398 1.67129C12.5153 1.78543 12.7586 1.94795 12.9695 2.15883L19.5911 8.78045C19.802 8.99142 19.9646 9.23469 20.0787 9.51024C20.1928 9.7858 20.2499 10.0728 20.25 10.3711ZM18.75 10.3712C18.75 10.2718 18.731 10.1761 18.6929 10.0843C18.6548 9.99244 18.6007 9.91138 18.5305 9.84111L11.9089 3.21961C11.8386 3.14932 11.7576 3.09514 11.6657 3.0571C11.5739 3.01905 11.4783 3.00002 11.3789 3H6.75C6.33579 3 5.98223 3.14645 5.68934 3.43934C5.39645 3.73223 5.25 4.08579 5.25 4.5V19.5C5.25 19.9142 5.39645 20.2678 5.68934 20.5607C5.98223 20.8536 6.33579 21 6.75 21H17.25C17.6642 21 18.0178 20.8536 18.3107 20.5607C18.6036 20.2678 18.75 19.9142 18.75 19.5V10.3712Z" fill="#9CA3AF"/>
<path fill-rule="evenodd" clip-rule="evenodd" d="M12 1.87109C11.5858 1.87109 11.25 2.20688 11.25 2.62109V8.24609C11.25 8.86741 11.4697 9.39774 11.909 9.83708C12.3484 10.2764 12.8787 10.4961 13.5 10.4961H19.125C19.5392 10.4961 19.875 10.1603 19.875 9.74609C19.875 9.33188 19.5392 8.99609 19.125 8.99609H13.5C13.2929 8.99609 13.1161 8.92287 12.9697 8.77642C12.8232 8.62998 12.75 8.4532 12.75 8.24609V2.62109C12.75 2.20688 12.4142 1.87109 12 1.87109ZM7.5 13.4961C7.5 13.9103 7.83579 14.2461 8.25 14.2461H15.75C16.1642 14.2461 16.5 13.9103 16.5 13.4961C16.5 13.0819 16.1642 12.7461 15.75 12.7461H8.25C7.83579 12.7461 7.5 13.0819 7.5 13.4961ZM7.5 17.2461C7.5 17.6603 7.83579 17.9961 8.25 17.9961H15.75C16.1642 17.9961 16.5 17.6603 16.5 17.2461C16.5 16.8319 16.1642 16.4961 15.75 16.4961H8.25C7.83579 16.4961 7.5 16.8319 7.5 17.2461Z" fill="#9CA3AF"/>
</g>
</svg>
