<svg width="80" height="80" viewBox="0 0 80 80" fill="none" xmlns="http://www.w3.org/2000/svg">
<circle cx="40" cy="40" r="39.5" fill="url(#paint0_linear_3461_1502)" stroke="#F1CB68"/>
<path d="M41.5 41.4269V47.1412H38.5V41.4269H32.5V38.5698H38.5V32.8555H41.5V38.5698H47.5V41.4269H41.5Z" fill="white"/>
<path fill-rule="evenodd" clip-rule="evenodd" d="M40 25H39.961C39.9038 25.0002 39.8468 25.0036 39.79 25.01C39.6734 25.0219 39.5573 25.0381 39.442 25.0586C39.0686 25.1283 38.7022 25.2287 38.347 25.3586C37.444 25.6814 36.1945 26.2886 34.6 27.4286C33.415 28.2743 31.4845 28.7714 29.653 29.0343C28.6248 29.1782 27.5884 29.2622 26.5495 29.2857H25V40C25 42.3657 26.017 44.4857 27.4 46.2814C28.7845 48.0743 30.595 49.6214 32.35 50.8757C34.5337 52.4227 36.8755 53.7561 39.34 54.8557L39.376 54.87L39.382 54.8729L39.415 54.8871C39.6057 54.964 39.811 55.0024 40.0181 54.9999C40.2251 54.9974 40.4294 54.9542 40.618 54.8729L40.624 54.87L40.6585 54.8557C40.8528 54.7712 41.0458 54.684 41.2375 54.5943C41.6245 54.4143 42.1735 54.1514 42.8275 53.8086C44.5056 52.9405 46.1171 51.9604 47.65 50.8757C49.405 49.6214 51.2155 48.0757 52.6 46.2814C53.983 44.4857 55 42.3657 55 40V29.2857H53.4505L53.275 29.2814C52.2948 29.2523 51.3172 29.1693 50.347 29.0329C48.5155 28.7714 46.585 28.2771 45.4 27.4286C43.8055 26.2886 42.556 25.6814 41.6515 25.3586C41.2963 25.2287 40.9299 25.1283 40.5565 25.0586C40.3853 25.03 40.2125 25.0109 40.039 25.0014H40.018L40.009 25H40ZM28 40V32.08C28.585 32.04 29.3095 31.9714 30.097 31.8586C32.0155 31.5857 34.585 31.0114 36.4 29.7143C37.8055 28.7114 38.806 28.2471 39.4015 28.0343C39.7 27.9271 39.8965 27.8843 39.9955 27.8657H40.0045C40.1035 27.8843 40.3 27.9271 40.5985 28.0343C41.194 28.2471 42.196 28.7114 43.6 29.7143C45.415 31.0114 47.9845 31.5857 49.903 31.8586C50.6905 31.9729 51.4135 32.04 52 32.08V40C52 41.5629 51.3295 43.1029 50.182 44.59C49.0345 46.0771 47.47 47.4329 45.85 48.59C44.0131 49.891 42.0549 51.0291 40 51.99C39.5308 51.771 39.0672 51.5414 38.6095 51.3014C37.0578 50.4987 35.5676 49.5927 34.15 48.59C32.53 47.4329 30.9655 46.0786 29.818 44.59C28.6705 43.1043 28 41.5643 28 40Z" fill="white"/>
<defs>
<linearGradient id="paint0_linear_3461_1502" x1="0" y1="0" x2="85.2048" y2="5.99224" gradientUnits="userSpaceOnUse">
<stop stop-color="#222126"/>
<stop offset="1" stop-color="#111116"/>
</linearGradient>
</defs>
</svg>
