<svg width="10" height="13" viewBox="0 0 10 13" fill="none" xmlns="http://www.w3.org/2000/svg">
<path d="M5 6.175C4.5264 6.175 4.0722 6.0038 3.73731 5.69905C3.40242 5.3943 3.21429 4.98098 3.21429 4.55C3.21429 4.11902 3.40242 3.7057 3.73731 3.40095C4.0722 3.0962 4.5264 2.925 5 2.925C5.4736 2.925 5.9278 3.0962 6.26269 3.40095C6.59758 3.7057 6.78571 4.11902 6.78571 4.55C6.78571 4.7634 6.73953 4.97471 6.64979 5.17186C6.56004 5.36901 6.42851 5.54815 6.26269 5.69905C6.09687 5.84994 5.90002 5.96964 5.68336 6.0513C5.46671 6.13297 5.2345 6.175 5 6.175ZM5 0C3.67392 0 2.40215 0.479374 1.46447 1.33266C0.526784 2.18595 0 3.34326 0 4.55C0 7.9625 5 13 5 13C5 13 10 7.9625 10 4.55C10 3.34326 9.47322 2.18595 8.53553 1.33266C7.59785 0.479374 6.32608 0 5 0Z" fill="#A0A0A0"/>
</svg>
