<svg width="80" height="80" viewBox="0 0 80 80" fill="none" xmlns="http://www.w3.org/2000/svg">
<circle cx="40" cy="40" r="39.5" fill="url(#paint0_linear_3461_1498)" stroke="#F1CB68"/>
<path d="M40 30C36.125 30 32.725 32.5375 31.625 36.25H48.375C47.8371 34.4459 46.7317 32.8634 45.223 31.7375C43.7142 30.6115 41.8826 30.0022 40 30ZM40 27.5C42.9837 27.5 45.8452 28.6853 47.955 30.795C50.0647 32.9048 51.25 35.7663 51.25 38.75H41.25V48.75C41.25 49.7446 40.8549 50.6984 40.1517 51.4017C39.4484 52.1049 38.4946 52.5 37.5 52.5C36.5054 52.5 35.5516 52.1049 34.8483 51.4017C34.1451 50.6984 33.75 49.7446 33.75 48.75V47.5H36.25V48.75C36.25 49.0815 36.3817 49.3995 36.6161 49.6339C36.8505 49.8683 37.1685 50 37.5 50C37.8315 50 38.1495 49.8683 38.3839 49.6339C38.6183 49.3995 38.75 49.0815 38.75 48.75V38.75H28.75C28.75 35.7663 29.9353 32.9048 32.045 30.795C34.1548 28.6853 37.0163 27.5 40 27.5Z" fill="white"/>
<defs>
<linearGradient id="paint0_linear_3461_1498" x1="0" y1="0" x2="85.2048" y2="5.99224" gradientUnits="userSpaceOnUse">
<stop stop-color="#222126"/>
<stop offset="1" stop-color="#111116"/>
</linearGradient>
</defs>
</svg>
